PathFileType	4	(X/Y/Z)	Patient4_TMGait_0pt6_02_right_28.trc.trc
DataRate	CameraRate	NumFrames	NumMarkers	Units	OrigDataRate	OrigDataStartFrame	OrigNumFrames
80.459770114942	80.459770114942	4	33	mm	80.459770114942	71	       141
Frame#	Time	Sacral			L.Shoulder			Chest			R.Shoulder			Neck			R.ASIS			L.ASIS			R.Thigh.Superior			R.Thigh.Lateral			R.Thigh.Inferior			R.Patella			L.Thigh.Superior			L.Thigh.Lateral			L.Thigh.Inferior			L.Patella			L.Shank.Superior			L.Shank.Lateral			L.Shank.Inferior			R.Shank.Superior			R.Shank.Lateral			R.Shank.Inferior			R.Heel			R.Midfoot.Superior			R.Midfoot.Lateral			R.Toe			L.Heel			L.Midfoot.Lateral			L.Midfoot.Superior			L.Toe			L.Elbow			L.Wrist			R.Elbow			R.Wrist			
		X1	Y1	Z1	X2	Y2	Z2	X3	Y3	Z3	X4	Y4	Z4	X5	Y5	Z5	X6	Y6	Z6	X7	Y7	Z7	X8	Y8	Z8	X9	Y9	Z9	X10	Y10	Z10	X11	Y11	Z11	X12	Y12	Z12	X13	Y13	Z13	X14	Y14	Z14	X15	Y15	Z15	X16	Y16	Z16	X17	Y17	Z17	X18	Y18	Z18	X19	Y19	Z19	X20	Y20	Z20	X21	Y21	Z21	X22	Y22	Z22	X23	Y23	Z23	X24	Y24	Z24	X25	Y25	Z25	X26	Y26	Z26	X27	Y27	Z27	X28	Y28	Z28	X29	Y29	Z29	X30	Y30	Z30	X31	Y31	Z31	X32	Y32	Z32	X33	Y33	Z33	

71	34.510000000000	907.872921426652	1014.193736900315	510.745565322607	1115.835389463215	1422.736090390072	318.709436882658	1224.826882428261	1339.619880251906	467.799000558433	1168.080739308750	1423.966360736497	646.121074905588	1136.605345845962	1480.617336212588	469.005441645060	1131.906654198572	929.897747699161	617.798964859027	1108.029772955314	945.552860746750	343.687663985966	1121.671754554144	718.764015344903	594.594300841882	1012.858738644804	631.456732694948	655.539959624467	1071.831653040469	561.278502803815	577.676415119288	1050.547011339304	478.154284439939	582.052783014330	1172.983969319930	763.921002271263	382.052007621074	1121.503439897025	635.974807713221	304.630389707978	1219.541248727590	575.426273659697	372.757183175162	1242.382143973002	509.414955865516	372.794700926080	1225.754851729017	437.571014059455	361.612369551885	1159.448963168994	307.916596456659	311.178354647231	1242.825980270585	208.788634740139	370.860427906695	1009.976241991928	396.993316322199	588.792607771977	923.577632266215	305.589163499615	650.435856808303	951.418752757267	205.265135274820	587.654008684533	798.989581932698	49.077401046881	555.427904014773	970.713468774825	97.568335274665	596.040406881474	879.982046379948	39.011236178258	631.562086814062	1088.388120862476	39.465915181893	626.905624023902	1152.967146145503	38.279239146585	410.716988732537	1227.677278352867	39.249295278911	331.093123805531	1304.009160664230	108.142615122990	355.322797478936	1435.296220072986	68.338730708828	330.054831015117	966.714516109921	1096.789031926382	224.500882759087	965.554315324243	835.403802766227	207.804997677792	1257.777024442815	1090.462604762122	749.363285356832	1478.197584356081	1100.888847127185	628.962106768689	
72	34.522428571429	909.831972052620	1012.732515369273	508.461672421546	1116.451531603722	1421.924430167335	316.448409167350	1225.525496851002	1339.239220923618	465.865167912042	1167.781070603912	1423.190176625770	644.119722968617	1136.616058080128	1479.920826143412	466.794238210961	1133.928852363520	928.917382724806	616.171720292030	1110.288596505881	944.372580232374	342.191388842935	1122.762368528788	717.537564693857	593.213170076297	1012.923271629762	630.932217295175	654.133574940019	1071.338221693252	560.156262446223	576.487876770624	1048.949130203522	476.831807922924	580.676070145109	1175.079405811611	761.750311644684	380.476844993441	1121.613400184825	634.080657938429	304.100447500378	1219.876102484296	573.527586064436	372.007747739463	1241.397100551834	506.868305958074	372.706567957136	1224.571200540632	434.837277864847	361.480685914187	1156.986582012304	305.848429280158	311.302014417533	1238.725166905467	205.935346843456	371.421809088890	1007.272396191859	396.074903882679	587.787670083151	919.747848938880	306.087943450583	649.981177518205	946.001342132229	205.243738026148	587.400353364454	791.689038375359	50.451629592980	555.778382326305	963.740300830947	97.903439296666	596.307344705425	872.703662606843	39.621343741538	631.792656408495	1081.008076269482	39.171093963160	626.956403433826	1145.615598855815	38.000759849574	411.573488920739	1220.048139704083	37.852870878298	331.560215882728	1298.420284141254	104.314887057886	356.342266878081	1428.853996880070	60.903849788004	330.260362708512	968.271765402162	1095.770492678533	221.862233847745	969.370763587536	834.224231942840	205.044067386650	1257.236708284703	1088.690710548953	745.945851559870	1476.486949140930	1098.792824687906	623.191966777568	
73	34.534857142857	911.648943363534	1011.617364468569	506.194237816898	1117.160109049578	1421.302457564011	314.127670671273	1226.351371446211	1338.937343811581	463.807240672008	1167.816466472105	1422.554297853399	642.030389775138	1136.880004534854	1479.400489365046	464.485855676010	1135.862719017676	928.032096562288	614.255935246391	1112.267383835483	943.590081838519	340.449435535308	1123.975994679340	716.484100535136	591.531231869752	1013.351103038283	630.487818972712	652.541202907791	1071.285737540536	559.168452135946	575.063282586436	1047.877557360466	475.530020700928	579.142998941247	1177.279532475157	760.451721383175	378.906523310270	1122.408436550266	633.000606762463	303.464078995885	1220.836328098009	572.483179918868	371.220133046724	1241.065570725571	505.038297750349	372.579551361398	1223.947006129972	432.711385636804	361.335201998167	1155.056875499796	304.554308819549	311.074417403235	1234.643639859722	203.660477328720	371.874109527377	1005.010314778093	395.232160593544	586.701431823816	916.265572903923	306.782599458548	649.445382868294	940.829770812195	205.388048907323	587.141275100503	784.483201178280	52.234890366132	556.168616536075	956.933133029963	98.314898484718	596.586455875168	865.498152935226	40.441387867279	632.024849254705	1073.672825647976	38.863045338727	627.008811293713	1138.003894620302	37.992554114743	412.010823143894	1212.318469815215	36.939985631051	331.796579649983	1292.425957864781	101.295714543686	357.226074428882	1422.140030964923	54.680360039202	330.624389140396	970.293027615013	1094.760326239761	219.096773566527	973.805933351581	833.070753108114	202.123748328554	1255.964855154680	1086.818343309074	742.886901412839	1474.311270063475	1095.450977552557	618.062064569569	
74	34.547285714286	913.306818414811	1010.919722988752	503.940033361246	1117.954804812903	1420.945175234890	311.793280950914	1227.301115566867	1338.751367527645	461.632306790309	1168.253706543978	1422.106600439602	639.871219089765	1137.419330917252	1479.106658249248	462.134506611288	1137.665216052144	927.317195197956	612.029673579615	1113.946111976841	943.245760560738	338.415030361555	1125.236582850668	715.673046824646	589.546395319456	1014.106213472224	630.171117818015	650.781376896262	1071.672148698053	558.367115076567	573.440363365322	1047.375180878358	474.274193212588	577.550753088733	1179.525530212870	760.080627539941	377.348552956118	1123.850352012460	632.727669120146	302.706321789575	1222.315344879222	572.223055624264	370.358686384488	1241.303810025944	503.880557136339	372.354519827732	1223.777384119499	431.180157789346	361.146649681406	1153.554659211647	303.992535562798	310.548437156878	1230.591307100533	201.978253284269	372.210998289692	1003.202667534667	394.512506702498	585.594363204816	913.122359340838	307.722106156838	648.843786312708	935.929708341885	205.746594770291	586.905050278623	777.398024682592	54.488043784988	556.587679163184	950.326535091131	98.805610170220	596.885389105218	858.377775670176	41.501435524612	632.243845292802	1066.385329280662	38.553317869499	627.056949769961	1130.312443849093	38.179674014848	412.116253200702	1204.628170660072	36.455265599913	331.854120575540	1286.105547571459	99.127474248897	357.932706939341	1415.254307533430	49.837880057820	331.048067308175	972.707963531800	1093.872494783742	216.242507694721	978.838457405203	832.071484876997	199.053410462007	1253.976452607370	1084.906153212385	740.164326156227	1471.693541394064	1090.785207969336	613.613619944247	
